<?xml version="1.0" encoding="utf-8"?>
<!-- Generator: Adobe Illustrator 19.1.0, SVG Export Plug-In . SVG Version: 6.00 Build 0)  -->
<svg version="1.1" id="Layer_1" xmlns="http://www.w3.org/2000/svg" xmlns:xlink="http://www.w3.org/1999/xlink" x="0px" y="0px"
	 viewBox="0 0 372.8 380.3" style="enable-background:new 0 0 372.8 380.3;" xml:space="preserve">
<style type="text/css">
	.st0{fill-rule:evenodd;clip-rule:evenodd;fill:#6D6E71;}
</style>
<g>
	<g>
		<path class="st0" d="M0,190.7C0,122.5,35.4,62.8,88.4,29.3c9.1-4.1,10.2,2.9,10.2,3.7c0,0.8,0,213.8,0,213.8
			c0,6.4,3.7,10.1,9.1,10.1h16.9c6.1,0,9.4-3.7,9.4-9.8V126.6c0-14.3,12.6-26.7,28.4-26.7c16.1,0,28.7,12,28.7,26.7
			c0,0,0,109.3,0,109.3c0.4,10.9-4.3,43.1,39.9,57.2c25.1,6.4,41.3,16.2,39.1,38.9c-4,30.7-26.5,39-42.8,43.6
			c-13.2,3-27,4.7-41.1,4.7C83.4,380.3,0,295.4,0,190.7z"/>
		<path class="st0" d="M308.1,333c0.2-0.6,22.5-49.2-35-58.6c-26-4.3-42.6-14.3-45-29.2c-2-12.8,10.4-23.4,24.2-22.3
			c12.7,1,25.4,12,29.4,16.5c8.8,10.1,19.9-2.8,19.9-10.7v-9.1c0-7.3-4.6-13.7-11-15.5c-8.9-2.4-18.2-5.2-29.1-4.8
			c-17.1,0.6-26.5,6.4-28.6,5.9c-3.4,0.1-4.9-0.9-5.6-8.1v-62.3c0-29.7-14.1-65.1-47.2-65.1c-8.9,0-20.2,1.1-26.2,7.9
			c-7.5,4.5-18.5,6.1-18.5-5.4V15.4c0.6-6.8,5.8-9.5,8.4-10.3c13.7-3.3,28-5.1,42.8-5.1c102.9,0,186.3,84.9,186.3,189.6
			C372.8,243,350.8,295.5,308.1,333z"/>
	</g>
</g>
</svg>
